{"accessors" : [{"bufferView" : 0, "byteOffset" : 0, "componentType" : 5125, "count" : 196380, "type" : "SCALAR", "max" : [196379], "min" : [0]}, {"bufferView" : 1, "byteOffset" : 0, "componentType" : 5126, "count" : 196380, "type" : "VEC3", "max" : [261.35400390625, 261.35400390625, 8.823530197143555], "min" : [0, 0, 0], "name" : "POSITION"}], "asset" : {"generator" : "Aspose.3D 21.8", "version" : "2.0"}, "buffers" : [{"uri" : "data:application/octet-stream;base64,", "byteLength" : 3142088}], "bufferViews" : [{"buffer" : 0, "byteOffset" : 0, "byteLength" : 785520, "target" : 34963}, {"buffer" : 0, "byteOffset" : 785524, "byteLength" : 2356560, "byteStride" : 12, "target" : 34962}], "materials" : [{"name" : "", "pbrMetallicRoughness" : {"baseColorFactor" : [1, 1, 1, 1], "metallicFactor" : 0, "roughnessFactor" : 0}, "emissiveFactor" : [0, 0, 0], "alphaMode" : "OPAQUE", "doubleSided" : false}], "meshes" : [{"primitives" : [{"attributes" : {"POSITION" : 1}, "indices" : 0, "material" : 0, "mode" : 4}], "name" : ""}], "nodes" : [{"mesh" : 0, "name" : "Node_0x558fa347c500"}], "scene" : 0, "scenes" : [{"nodes" : [0]}]}